<svg width="168" height="206" viewBox="0 0 168 206" fill="none" xmlns="http://www.w3.org/2000/svg">
<path d="M16.9849 74.0196L57.6123 103.216L16.9849 132.412C-1.11731 145.422 -5.24662 170.642 7.76348 188.744C20.7736 206.846 45.9957 210.975 64.0979 197.966L150.326 135.998C150.446 135.913 150.558 135.82 150.676 135.733C150.961 135.524 151.242 135.311 151.521 135.093C151.796 134.88 152.07 134.665 152.338 134.446C152.556 134.265 152.772 134.083 152.988 133.898C153.32 133.615 153.647 133.329 153.967 133.039C154.096 132.922 154.221 132.803 154.348 132.684C154.753 132.306 155.151 131.92 155.538 131.529C155.573 131.493 155.605 131.459 155.639 131.424C158.525 128.477 160.886 125.16 162.702 121.605C162.734 121.542 162.766 121.48 162.798 121.416C163.038 120.942 163.266 120.464 163.485 119.981C163.564 119.809 163.643 119.638 163.719 119.465C163.88 119.098 164.034 118.727 164.184 118.356C164.298 118.074 164.411 117.794 164.519 117.51C164.619 117.245 164.713 116.979 164.807 116.712C164.943 116.329 165.077 115.946 165.201 115.561C165.257 115.385 165.309 115.208 165.363 115.032C165.506 114.565 165.644 114.096 165.769 113.626C165.799 113.515 165.825 113.404 165.854 113.295C165.989 112.766 166.117 112.238 166.232 111.707C166.248 111.629 166.262 111.551 166.279 111.473C166.395 110.918 166.501 110.361 166.593 109.804C166.607 109.719 166.618 109.634 166.632 109.549C166.717 109.003 166.796 108.457 166.86 107.909C166.874 107.782 166.885 107.653 166.899 107.525C166.952 107.027 167 106.528 167.035 106.028C167.049 105.819 167.057 105.609 167.068 105.4C167.09 104.983 167.112 104.568 167.121 104.152C167.129 103.84 167.126 103.528 167.127 103.216C167.126 102.903 167.129 102.592 167.121 102.28C167.112 101.864 167.09 101.449 167.068 101.032C167.057 100.823 167.049 100.613 167.035 100.404C167 99.9038 166.952 99.4052 166.899 98.9055C166.885 98.7786 166.874 98.6506 166.86 98.5226C166.796 97.975 166.717 97.4286 166.632 96.8821C166.618 96.7975 166.607 96.7129 166.593 96.6284C166.501 96.0708 166.395 95.5143 166.279 94.9589C166.262 94.881 166.248 94.8031 166.232 94.7252C166.117 94.1943 165.989 93.6657 165.854 93.137C165.825 93.0268 165.799 92.9166 165.769 92.8064C165.644 92.3368 165.506 91.8682 165.363 91.4008C165.309 91.2238 165.257 91.0469 165.2 90.8699C165.077 90.4859 164.943 90.1031 164.807 89.7213C164.714 89.4542 164.619 89.1871 164.519 88.9222C164.411 88.6384 164.298 88.3579 164.184 88.0763C164.034 87.7046 163.88 87.334 163.719 86.9667C163.643 86.7942 163.564 86.6228 163.485 86.4503C163.266 85.9684 163.038 85.4898 162.798 85.0157C162.766 84.9523 162.734 84.8899 162.702 84.8265C160.886 81.2717 158.525 77.9551 155.639 75.0079C155.605 74.9734 155.573 74.9389 155.538 74.9044C155.151 74.5116 154.753 74.1265 154.348 73.7481C154.221 73.629 154.096 73.5099 153.967 73.3941C153.647 73.1014 153.32 72.8165 152.988 72.5338C152.772 72.3491 152.556 72.1654 152.338 71.9862C152.07 71.767 151.796 71.5522 151.521 71.3385C151.242 71.1215 150.961 70.9078 150.676 70.6985C150.558 70.6117 150.446 70.5194 150.326 70.4337L64.0979 8.4661C45.9957 -4.54221 20.7736 -0.414217 7.76348 17.6881C-5.24662 35.7905 -1.11731 61.0102 16.9849 74.0196Z" fill="#FF0004" style="fill:#FF0004;fill:color(display-p3 1.0000 0.0000 0.0167);fill-opacity:1;"/>
</svg>
