<svg width="1728" height="1117" viewBox="0 0 1728 1117" fill="none" xmlns="http://www.w3.org/2000/svg">
<g clip-path="url(#clip0_251_3801)">
<g clip-path="url(#clip1_251_3801)">
<g clip-path="url(#clip2_251_3801)">
<g opacity="0.1">
<path d="M0 0H1728V1H0V0Z" fill="black" style="fill:black;fill-opacity:1;"/>
<path d="M0 30H1728V31H0V30Z" fill="black" style="fill:black;fill-opacity:1;"/>
<path d="M0 60H1728V61H0V60Z" fill="black" style="fill:black;fill-opacity:1;"/>
<path d="M0 90H1728V91H0V90Z" fill="black" style="fill:black;fill-opacity:1;"/>
<path d="M0 120H1728V121H0V120Z" fill="black" style="fill:black;fill-opacity:1;"/>
<path d="M0 150H1728V151H0V150Z" fill="black" style="fill:black;fill-opacity:1;"/>
<path d="M0 180H1728V181H0V180Z" fill="black" style="fill:black;fill-opacity:1;"/>
<path d="M0 210H1728V211H0V210Z" fill="black" style="fill:black;fill-opacity:1;"/>
<path d="M0 240H1728V241H0V240Z" fill="black" style="fill:black;fill-opacity:1;"/>
<path d="M0 270H1728V271H0V270Z" fill="black" style="fill:black;fill-opacity:1;"/>
<path d="M0 300H1728V301H0V300Z" fill="black" style="fill:black;fill-opacity:1;"/>
<path d="M0 330H1728V331H0V330Z" fill="black" style="fill:black;fill-opacity:1;"/>
<path d="M0 360H1728V361H0V360Z" fill="black" style="fill:black;fill-opacity:1;"/>
<path d="M0 390H1728V391H0V390Z" fill="black" style="fill:black;fill-opacity:1;"/>
<path d="M0 420H1728V421H0V420Z" fill="black" style="fill:black;fill-opacity:1;"/>
<path d="M0 450H1728V451H0V450Z" fill="black" style="fill:black;fill-opacity:1;"/>
<path d="M0 480H1728V481H0V480Z" fill="black" style="fill:black;fill-opacity:1;"/>
<path d="M0 510H1728V511H0V510Z" fill="black" style="fill:black;fill-opacity:1;"/>
<path d="M0 540H1728V541H0V540Z" fill="black" style="fill:black;fill-opacity:1;"/>
<path d="M0 570H1728V571H0V570Z" fill="black" style="fill:black;fill-opacity:1;"/>
<path d="M0 600H1728V601H0V600Z" fill="black" style="fill:black;fill-opacity:1;"/>
<path d="M0 630H1728V631H0V630Z" fill="black" style="fill:black;fill-opacity:1;"/>
<path d="M0 660H1728V661H0V660Z" fill="black" style="fill:black;fill-opacity:1;"/>
<path d="M0 690H1728V691H0V690Z" fill="black" style="fill:black;fill-opacity:1;"/>
<path d="M0 720H1728V721H0V720Z" fill="black" style="fill:black;fill-opacity:1;"/>
<path d="M0 750H1728V751H0V750Z" fill="black" style="fill:black;fill-opacity:1;"/>
<path d="M0 780H1728V781H0V780Z" fill="black" style="fill:black;fill-opacity:1;"/>
<path d="M0 810H1728V811H0V810Z" fill="black" style="fill:black;fill-opacity:1;"/>
<path d="M0 840H1728V841H0V840Z" fill="black" style="fill:black;fill-opacity:1;"/>
<path d="M0 870H1728V871H0V870Z" fill="black" style="fill:black;fill-opacity:1;"/>
<path d="M0 900H1728V901H0V900Z" fill="black" style="fill:black;fill-opacity:1;"/>
<path d="M0 930H1728V931H0V930Z" fill="black" style="fill:black;fill-opacity:1;"/>
<path d="M0 960H1728V961H0V960Z" fill="black" style="fill:black;fill-opacity:1;"/>
<path d="M0 990H1728V991H0V990Z" fill="black" style="fill:black;fill-opacity:1;"/>
<path d="M0 1020H1728V1021H0V1020Z" fill="black" style="fill:black;fill-opacity:1;"/>
<path d="M0 1050H1728V1051H0V1050Z" fill="black" style="fill:black;fill-opacity:1;"/>
<path d="M0 1080H1728V1081H0V1080Z" fill="black" style="fill:black;fill-opacity:1;"/>
<path d="M0 1110H1728V1111H0V1110Z" fill="black" style="fill:black;fill-opacity:1;"/>
<path d="M0 0H1V1117H0V0Z" fill="black" style="fill:black;fill-opacity:1;"/>
<path d="M30 0H31V1117H30V0Z" fill="black" style="fill:black;fill-opacity:1;"/>
<path d="M60 0H61V1117H60V0Z" fill="black" style="fill:black;fill-opacity:1;"/>
<path d="M90 0H91V1117H90V0Z" fill="black" style="fill:black;fill-opacity:1;"/>
<path d="M120 0H121V1117H120V0Z" fill="black" style="fill:black;fill-opacity:1;"/>
<path d="M150 0H151V1117H150V0Z" fill="black" style="fill:black;fill-opacity:1;"/>
<path d="M180 0H181V1117H180V0Z" fill="black" style="fill:black;fill-opacity:1;"/>
<path d="M210 0H211V1117H210V0Z" fill="black" style="fill:black;fill-opacity:1;"/>
<path d="M240 0H241V1117H240V0Z" fill="black" style="fill:black;fill-opacity:1;"/>
<path d="M270 0H271V1117H270V0Z" fill="black" style="fill:black;fill-opacity:1;"/>
<path d="M300 0H301V1117H300V0Z" fill="black" style="fill:black;fill-opacity:1;"/>
<path d="M330 0H331V1117H330V0Z" fill="black" style="fill:black;fill-opacity:1;"/>
<path d="M360 0H361V1117H360V0Z" fill="black" style="fill:black;fill-opacity:1;"/>
<path d="M390 0H391V1117H390V0Z" fill="black" style="fill:black;fill-opacity:1;"/>
<path d="M420 0H421V1117H420V0Z" fill="black" style="fill:black;fill-opacity:1;"/>
<path d="M450 0H451V1117H450V0Z" fill="black" style="fill:black;fill-opacity:1;"/>
<path d="M480 0H481V1117H480V0Z" fill="black" style="fill:black;fill-opacity:1;"/>
<path d="M510 0H511V1117H510V0Z" fill="black" style="fill:black;fill-opacity:1;"/>
<path d="M540 0H541V1117H540V0Z" fill="black" style="fill:black;fill-opacity:1;"/>
<path d="M570 0H571V1117H570V0Z" fill="black" style="fill:black;fill-opacity:1;"/>
<path d="M600 0H601V1117H600V0Z" fill="black" style="fill:black;fill-opacity:1;"/>
<path d="M630 0H631V1117H630V0Z" fill="black" style="fill:black;fill-opacity:1;"/>
<path d="M660 0H661V1117H660V0Z" fill="black" style="fill:black;fill-opacity:1;"/>
<path d="M690 0H691V1117H690V0Z" fill="black" style="fill:black;fill-opacity:1;"/>
<path d="M720 0H721V1117H720V0Z" fill="black" style="fill:black;fill-opacity:1;"/>
<path d="M750 0H751V1117H750V0Z" fill="black" style="fill:black;fill-opacity:1;"/>
<path d="M780 0H781V1117H780V0Z" fill="black" style="fill:black;fill-opacity:1;"/>
<path d="M810 0H811V1117H810V0Z" fill="black" style="fill:black;fill-opacity:1;"/>
<path d="M840 0H841V1117H840V0Z" fill="black" style="fill:black;fill-opacity:1;"/>
<path d="M870 0H871V1117H870V0Z" fill="black" style="fill:black;fill-opacity:1;"/>
<path d="M900 0H901V1117H900V0Z" fill="black" style="fill:black;fill-opacity:1;"/>
<path d="M930 0H931V1117H930V0Z" fill="black" style="fill:black;fill-opacity:1;"/>
<path d="M960 0H961V1117H960V0Z" fill="black" style="fill:black;fill-opacity:1;"/>
<path d="M990 0H991V1117H990V0Z" fill="black" style="fill:black;fill-opacity:1;"/>
<path d="M1020 0H1021V1117H1020V0Z" fill="black" style="fill:black;fill-opacity:1;"/>
<path d="M1050 0H1051V1117H1050V0Z" fill="black" style="fill:black;fill-opacity:1;"/>
<path d="M1080 0H1081V1117H1080V0Z" fill="black" style="fill:black;fill-opacity:1;"/>
<path d="M1110 0H1111V1117H1110V0Z" fill="black" style="fill:black;fill-opacity:1;"/>
<path d="M1140 0H1141V1117H1140V0Z" fill="black" style="fill:black;fill-opacity:1;"/>
<path d="M1170 0H1171V1117H1170V0Z" fill="black" style="fill:black;fill-opacity:1;"/>
<path d="M1200 0H1201V1117H1200V0Z" fill="black" style="fill:black;fill-opacity:1;"/>
<path d="M1230 0H1231V1117H1230V0Z" fill="black" style="fill:black;fill-opacity:1;"/>
<path d="M1260 0H1261V1117H1260V0Z" fill="black" style="fill:black;fill-opacity:1;"/>
<path d="M1290 0H1291V1117H1290V0Z" fill="black" style="fill:black;fill-opacity:1;"/>
<path d="M1320 0H1321V1117H1320V0Z" fill="black" style="fill:black;fill-opacity:1;"/>
<path d="M1350 0H1351V1117H1350V0Z" fill="black" style="fill:black;fill-opacity:1;"/>
<path d="M1380 0H1381V1117H1380V0Z" fill="black" style="fill:black;fill-opacity:1;"/>
<path d="M1410 0H1411V1117H1410V0Z" fill="black" style="fill:black;fill-opacity:1;"/>
<path d="M1440 0H1441V1117H1440V0Z" fill="black" style="fill:black;fill-opacity:1;"/>
<path d="M1470 0H1471V1117H1470V0Z" fill="black" style="fill:black;fill-opacity:1;"/>
<path d="M1500 0H1501V1117H1500V0Z" fill="black" style="fill:black;fill-opacity:1;"/>
<path d="M1530 0H1531V1117H1530V0Z" fill="black" style="fill:black;fill-opacity:1;"/>
<path d="M1560 0H1561V1117H1560V0Z" fill="black" style="fill:black;fill-opacity:1;"/>
<path d="M1590 0H1591V1117H1590V0Z" fill="black" style="fill:black;fill-opacity:1;"/>
<path d="M1620 0H1621V1117H1620V0Z" fill="black" style="fill:black;fill-opacity:1;"/>
<path d="M1650 0H1651V1117H1650V0Z" fill="black" style="fill:black;fill-opacity:1;"/>
<path d="M1680 0H1681V1117H1680V0Z" fill="black" style="fill:black;fill-opacity:1;"/>
<path d="M1710 0H1711V1117H1710V0Z" fill="black" style="fill:black;fill-opacity:1;"/>
</g>
</g>
</g>
</g>
<defs>
<clipPath id="clip0_251_3801">
<rect width="1728" height="1117" fill="white" style="fill:white;fill-opacity:1;"/>
</clipPath>
<clipPath id="clip1_251_3801">
<rect width="1728" height="1117" fill="white" style="fill:white;fill-opacity:1;"/>
</clipPath>
<clipPath id="clip2_251_3801">
<rect width="1728" height="1117" fill="white" style="fill:white;fill-opacity:1;"/>
</clipPath>
</defs>
</svg>
