<svg width="249" height="249" viewBox="0 0 249 249" fill="none" xmlns="http://www.w3.org/2000/svg">
<path d="M38.1219 37.5611C84.8198 -7.75526 157.581 -10.6211 207.587 33.0962L208.145 33.5898C218.328 42.5953 219.594 58.5463 210.936 69.1839C202.314 79.7759 187.136 81.0593 176.998 72.0945L176.99 72.0878C176.967 72.0673 176.943 72.0465 176.919 72.0254C176.866 71.9781 176.811 71.9288 176.751 71.8757L176.745 71.8698L176.738 71.8641C146.264 45.1471 102.182 46.2209 72.9876 72.61C75.5587 62.2117 72.4496 50.7259 64.0485 43.297L64.0484 43.297C56.613 36.723 46.8293 34.9122 38.1219 37.5611Z" fill="url(#paint0_linear_425_1088)" stroke="black" stroke-width="3.76849"/>
<path d="M34.0655 42.3301V40.0463C43.1479 30.3531 58.7354 29.2775 69.1895 37.7771C79.78 46.3878 81.0633 61.5441 72.1018 71.6688C72.0698 71.7047 72.0262 71.7537 71.9806 71.8066C45.1507 102.247 46.186 146.353 72.6011 175.555C62.2057 172.991 50.7253 176.098 43.2991 184.487C36.7222 191.916 34.9132 201.692 37.5646 210.391C-7.59985 163.909 -10.6019 91.5726 32.6479 41.6408L34.0655 42.3301ZM40.9022 213.705C36.4655 204.763 37.5919 193.776 44.71 185.736L40.9022 213.705Z" fill="url(#paint1_linear_425_1088)" stroke="black" stroke-width="3.76849"/>
<path d="M37.7763 179.535C46.3861 168.945 61.5401 167.66 71.6664 176.619C71.6682 176.62 71.67 176.622 71.6718 176.624L71.7263 176.673L71.7918 176.732L71.7989 176.738L71.8061 176.744C102.247 203.573 146.355 202.536 175.556 176.12C172.993 186.515 176.099 197.995 184.487 205.421C191.915 211.997 201.69 213.807 210.389 211.157C163.573 256.645 90.5287 259.361 40.5653 215.131C30.3932 206.126 29.1283 190.173 37.7763 179.535ZM37.7763 179.535L36.3143 178.347L37.7763 179.535Z" fill="url(#paint2_linear_425_1088)" stroke="black" stroke-width="3.76849"/>
<path d="M176.03 73.1018C186.437 75.6677 197.932 72.561 205.367 64.1689C211.954 56.7345 213.765 46.9516 211.108 38.2473C256.614 85.0397 259.374 158.025 215.219 208.008C215.217 208.01 215.216 208.011 215.214 208.013L215.1 208.141L215.093 208.148C206.076 218.327 190.101 219.594 179.448 210.94C168.843 202.325 167.559 187.161 176.533 177.031C203.52 146.574 202.517 102.358 176.03 73.1018Z" fill="url(#paint3_linear_425_1088)" stroke="black" stroke-width="3.76849"/>
<defs>
<linearGradient id="paint0_linear_425_1088" x1="183.661" y1="41.4534" x2="57.0172" y2="47.7439" gradientUnits="userSpaceOnUse">
<stop stop-color="#2572F0"/>
<stop offset="1" stop-color="#83A6DE"/>
</linearGradient>
<linearGradient id="paint1_linear_425_1088" x1="34.3853" y1="78.8391" x2="50.9624" y2="205.092" gradientUnits="userSpaceOnUse">
<stop stop-color="#10864D"/>
<stop offset="1" stop-color="#7BBE9D"/>
</linearGradient>
<linearGradient id="paint2_linear_425_1088" x1="103.004" y1="215.706" x2="201.099" y2="188.896" gradientUnits="userSpaceOnUse">
<stop stop-color="#F4B400"/>
<stop offset="1" stop-color="#E0CF9E"/>
</linearGradient>
<linearGradient id="paint3_linear_425_1088" x1="215.698" y1="145.711" x2="188.87" y2="47.6387" gradientUnits="userSpaceOnUse">
<stop stop-color="#DB4437"/>
<stop offset="1" stop-color="#EFBAB5"/>
</linearGradient>
</defs>
</svg>
